<svg width="24" height="24" viewBox="0 0 24 24" fill="none" xmlns="http://www.w3.org/2000/svg">
<path d="M11.25 18.75C11.25 19.58 10.58 20.25 9.75 20.25C8.92 20.25 8.25 19.58 8.25 18.75C8.25 17.92 8.92 17.25 9.75 17.25C10.58 17.25 11.25 17.92 11.25 18.75ZM16.25 17.25C15.42 17.25 14.75 17.92 14.75 18.75C14.75 19.58 15.42 20.25 16.25 20.25C17.08 20.25 17.75 19.58 17.75 18.75C17.75 17.92 17.08 17.25 16.25 17.25ZM20.73 7.68L18.73 15.68C18.6897 15.843 18.5959 15.9878 18.4635 16.0911C18.3311 16.1945 18.1679 16.2504 18 16.25H8C7.64 16.25 7.33 15.99 7.26 15.63L5.37 5.25H4C3.59 5.25 3.25 4.91 3.25 4.5C3.25 4.09 3.59 3.75 4 3.75H6C6.36 3.75 6.67 4.01 6.74 4.37L7.17 6.75H20C20.1137 6.75048 20.2259 6.77667 20.328 6.82662C20.4302 6.87657 20.5197 6.94898 20.5899 7.03844C20.6602 7.12789 20.7092 7.23207 20.7335 7.34317C20.7577 7.45427 20.7565 7.56942 20.73 7.68ZM19.04 8.25H7.44L8.62 14.75H17.41L19.04 8.25Z" fill="black"/>
<circle cx="20" cy="6" r="3" fill="#ED5E5E"/>
</svg>
